<svg xmlns="http://www.w3.org/2000/svg" width="140" height="41" viewBox="0 0 140 41">
    <g fill="none" fill-rule="evenodd">
        <path fill="#000"
            d="M7.607 41.51c-.665-.016-1.452-.05-2.22-.177a7.388 7.388 0 0 1-1.967-.6c-.62-.288-.866-.386-1.348-.834A5.875 5.875 0 0 1 .86 38.372a5.943 5.943 0 0 1-.645-1.81c-.145-.736-.182-1.481-.197-2.05-.009-.23-.018-.997-.018-.997V8.27s.01-.755.018-.977C.033 6.722.07 5.976.214 5.25A5.916 5.916 0 0 1 .86 3.432a5.88 5.88 0 0 1 1.205-1.527A6.615 6.615 0 0 1 3.729.787 7.332 7.332 0 0 1 5.692.192c.8-.13 1.61-.165 2.227-.179L8.989 0h122.013l1.084.014c.609.013 1.42.047 2.207.177a7.515 7.515 0 0 1 1.984.6c.609.286 1.166.661 1.651 1.11a6.1 6.1 0 0 1 1.216 1.534c.306.558.514 1.15.636 1.802.137.689.18 1.397.206 2.062.003.309.003.642.003.972.011.41.011.8.011 1.193v22.87c0 .397 0 .785-.01 1.175 0 .356 0 .681-.005 1.017-.025.643-.068 1.35-.203 2.025a5.939 5.939 0 0 1-.642 1.825c-.319.568-.397.67-1.205 1.514-.807.844-3.216 1.321-3.952 1.443-.76.126-1.547.161-2.219.178-.347.007-.712.012-1.066.012l-1.287.002L8.68 41.523c-.362 0-.715-.005-1.073-.012z"></path>
        <path fill="#FFFFFE"
            d="M60.172 20.927c2.851 0 4.732 2.225 4.732 5.662 0 3.446-1.87 5.66-4.69 5.66-1.601 0-2.872-.706-3.535-1.94h-.053v5.493h-2.307v-14.76h2.232v1.845h.043c.641-1.19 2.009-1.96 3.578-1.96zm12.41 0c2.852 0 4.73 2.225 4.73 5.662 0 3.446-1.867 5.66-4.688 5.66-1.6 0-2.872-.706-3.534-1.94h-.054v5.493H66.73v-14.76h2.233v1.845h.042c.642-1.19 2.008-1.96 3.578-1.96zm16.295-3.675c3.256 0 5.49 1.804 5.564 4.427h-2.329c-.139-1.517-1.41-2.434-3.267-2.434-1.86 0-3.13.928-3.13 2.276 0 1.076.811 1.71 2.798 2.194l1.698.41c3.162.74 4.477 1.993 4.477 4.218 0 2.846-2.298 4.628-5.95 4.628-3.418 0-5.726-1.74-5.875-4.492h2.362c.17 1.51 1.655 2.5 3.683 2.5 1.945 0 3.343-.99 3.343-2.351 0-1.181-.844-1.888-2.84-2.372l-1.998-.475c-2.83-.675-4.144-1.981-4.144-4.102 0-2.623 2.318-4.427 5.608-4.427zm-64.44-4.898l.298.02c.871.025 3.353.34 4.954 2.643-.13.077-2.956 1.717-2.925 5.087.035 4.04 3.58 5.374 3.623 5.389-.021.093-.555 1.927-1.884 3.788-1.11 1.639-2.275 3.24-4.122 3.27-1.794.04-2.397-1.043-4.456-1.043-2.078 0-2.72 1.014-4.442 1.084-1.76.065-3.104-1.75-4.254-3.374-2.299-3.315-4.09-9.343-1.69-13.444 1.164-2.012 3.286-3.308 5.552-3.342 1.76-.037 3.395 1.174 4.478 1.174 1.062 0 3.082-1.448 5.166-1.232zm23.14 4.898l5.563 15.212h-2.53l-1.41-4.11h-5.874l-1.412 4.11h-2.488l5.565-15.212h2.585zm60.472 3.675c3.257 0 5.33 2.193 5.33 5.683 0 3.499-2.061 5.682-5.33 5.682-3.268 0-5.33-2.183-5.33-5.682 0-3.49 2.083-5.683 5.33-5.683zm18.488 0c3.108 0 5.063 2.109 5.063 5.471v.78h-7.936v.138c0 1.897 1.207 3.14 3.023 3.14 1.28 0 2.286-.6 2.595-1.559h2.189c-.31 2.014-2.296 3.395-4.838 3.395-3.269 0-5.298-2.161-5.298-5.63 0-3.478 2.04-5.735 5.202-5.735zm-27.313-2.45v2.624h2.137v1.803h-2.137v6.114c0 .951.428 1.393 1.367 1.393.235 0 .61-.032.758-.052v1.792c-.255.063-.768.105-1.28.105-2.275 0-3.162-.844-3.162-2.994v-6.358h-1.634v-1.803h1.634v-2.624h2.317zm20.862 2.45c.33 0 .608.043.79.085v2.129c-.182-.074-.588-.137-1.036-.137-1.484 0-2.403.992-2.403 2.551v6.579h-2.307V21.042h2.2v1.888h.054c.352-1.254 1.377-2.003 2.702-2.003zm-12.037 1.876c-1.87 0-2.979 1.423-2.979 3.807 0 2.403 1.11 3.805 2.979 3.805s2.98-1.402 2.98-3.805c0-2.394-1.111-3.807-2.98-3.807zm-36.075.065c-1.762 0-2.948 1.506-2.948 3.721 0 2.235 1.186 3.732 2.948 3.732 1.793 0 2.968-1.467 2.968-3.732 0-2.245-1.175-3.721-2.968-3.721zm-12.41 0c-1.763 0-2.948 1.506-2.948 3.721 0 2.235 1.185 3.732 2.947 3.732 1.794 0 2.97-1.467 2.97-3.732 0-2.245-1.176-3.721-2.97-3.721zm-13.27-3.085h-.063l-2.297 6.673h4.656l-2.296-6.673zm80.243 2.99c-1.591 0-2.744 1.138-2.862 2.814h5.617c-.054-1.698-1.153-2.815-2.755-2.815zM43.342 6.226c2.196 0 3.485 1.332 3.485 3.632 0 2.335-1.279 3.678-3.485 3.678h-2.675v-7.31h2.675zm7.409 1.225c1.627 0 2.633 1.084 2.633 2.862 0 1.788-1.001 2.868-2.633 2.868-1.637 0-2.637-1.08-2.637-2.868 0-1.778 1.005-2.862 2.637-2.862zm23.58 0c1.627 0 2.633 1.084 2.633 2.862 0 1.788-1.001 2.868-2.633 2.868-1.637 0-2.638-1.08-2.638-2.868 0-1.778 1.006-2.862 2.638-2.862zm22.338 0c1.627 0 2.634 1.084 2.634 2.862 0 1.788-1.002 2.868-2.634 2.868-1.635 0-2.637-1.08-2.637-2.868 0-1.778 1.007-2.862 2.637-2.862zm27.243 0c1.555 0 2.493 1.049 2.493 2.781v.38h-3.947v.061c.038.967.607 1.58 1.488 1.58.67 0 1.126-.239 1.33-.669h1.062c-.25.99-1.144 1.597-2.421 1.597-1.601 0-2.582-1.084-2.582-2.848 0-1.763 1.002-2.882 2.577-2.882zm-42.273 0c1.401 0 2.19.689 2.19 1.854v3.77h-1.06V12.3h-.089c-.332.552-.943.866-1.677.866-1.078 0-1.863-.643-1.863-1.652 0-.992.748-1.565 2.078-1.646l1.513-.086v-.476c0-.582-.39-.912-1.143-.912-.615 0-1.042.223-1.165.613h-1.067c.113-.947 1.015-1.555 2.283-1.555zm30.518-1.225v1.398h1.21v.918h-1.21v2.835c0 .579.242.832.79.832.17 0 .267-.01.42-.025v.906c-.18.03-.385.056-.6.056-1.226 0-1.714-.426-1.714-1.49V8.544h-.887v-.918h.887V6.227h1.104zm-46.34 1.225c1.247 0 1.935.739 1.935 2.052v3.571h-1.103V9.777c0-.886-.39-1.327-1.207-1.327-.815 0-1.334.537-1.334 1.397v3.228h-1.102V7.56h1.061v.876h.082c.272-.613.827-.983 1.668-.983zm38.473 0c1.247 0 1.934.739 1.934 2.052v3.571h-1.103V9.777c0-.886-.39-1.327-1.206-1.327s-1.334.537-1.334 1.397v3.228h-1.102V7.56h1.06v.876h.083c.271-.613.826-.983 1.668-.983zm-48.852 0l1 4.21h.084l1.149-4.21h1.057l1.15 4.21h.086l.997-4.21h1.103L60.53 12.97h-1.144L58.23 8.905h-.089l-1.149 4.064H55.86L54.32 7.452h1.12zm35.126-2.45v7.67h-1.057V11.8h-.088c-.332.604-.985.963-1.755.963-1.42 0-2.32-1.104-2.32-2.852 0-1.743.91-2.847 2.32-2.847.766 0 1.412.36 1.714.968h.083v-3.03h1.103zm25.66 0v3.04h.086c.27-.618.862-.988 1.704-.988 1.19 0 1.925.745 1.925 2.057v3.561h-1.104V9.38c0-.88-.416-1.328-1.196-1.328-.903 0-1.407.564-1.407 1.4v3.221h-1.102v-7.67h1.093zm-45.91 0v7.67h-1.103v-7.67h1.104zm-27.1 2.258h-1.396v5.243h1.396c1.549 0 2.441-.952 2.441-2.629 0-1.651-.907-2.614-2.441-2.614zM25.002 6.227c.175 1.58-.458 3.134-1.384 4.277-.966 1.124-2.512 1.986-4.017 1.874-.197-1.518.565-3.132 1.42-4.117.965-1.119 2.64-1.975 3.98-2.034zm57.73 4.355l-1.365.086c-.77.051-1.118.31-1.118.796 0 .496.436.785 1.035.785.832 0 1.447-.521 1.447-1.205v-.462zM96.668 8.42c-.959 0-1.497.698-1.497 1.894 0 1.205.538 1.9 1.497 1.9.955 0 1.5-.7 1.5-1.9 0-1.196-.545-1.894-1.5-1.894zm-45.918 0c-.96 0-1.498.698-1.498 1.894 0 1.205.538 1.9 1.498 1.9.954 0 1.499-.7 1.499-1.9 0-1.196-.545-1.894-1.5-1.894zm23.58 0c-.96 0-1.498.698-1.498 1.894 0 1.205.538 1.9 1.498 1.9.954 0 1.499-.7 1.499-1.9 0-1.196-.545-1.894-1.5-1.894zm13.646-.378c-.928 0-1.493.709-1.493 1.869 0 1.17.559 1.874 1.493 1.874.93 0 1.504-.714 1.504-1.87 0-1.148-.58-1.873-1.504-1.873zm35.929.336c-.816 0-1.386.569-1.448 1.43h2.824c-.026-.866-.56-1.43-1.376-1.43z"></path>
    </g>
</svg>