<!-- <svg width="24" height="25" viewBox="0 0 24 25" fill="none" xmlns="http://www.w3.org/2000/svg">
<g clip-path="url(#clip0_6042_26930)">
<path d="M9 22.5C9.55228 22.5 10 22.0523 10 21.5C10 20.9477 9.55228 20.5 9 20.5C8.44772 20.5 8 20.9477 8 21.5C8 22.0523 8.44772 22.5 9 22.5Z" stroke="#FF9F6C" stroke-width="2" stroke-linecap="round" stroke-linejoin="round"/>
<path d="M20 22.5C20.5523 22.5 21 22.0523 21 21.5C21 20.9477 20.5523 20.5 20 20.5C19.4477 20.5 19 20.9477 19 21.5C19 22.0523 19.4477 22.5 20 22.5Z" stroke="#FF9F6C" stroke-width="2" stroke-linecap="round" stroke-linejoin="round"/>
<path d="M6 6.5L7.68 14.89C7.77144 15.3504 8.02191 15.764 8.38755 16.0583C8.75318 16.3526 9.2107 16.509 9.68 16.5H19.4C19.8693 16.509 20.3268 16.3526 20.6925 16.0583C21.0581 15.764 21.3086 15.3504 21.4 14.89L23 6.5H6Z" fill="#FF9F6C"/>
<path d="M1 1.5H5L7.68 14.89M7.68 14.89C7.77144 15.3504 8.02191 15.764 8.38755 16.0583C8.75318 16.3526 9.2107 16.509 9.68 16.5H19.4C19.8693 16.509 20.3268 16.3526 20.6925 16.0583C21.0581 15.764 21.3086 15.3504 21.4 14.89L23 6.5H6L7.68 14.89Z" stroke="#FF9F6C" stroke-width="2" stroke-linecap="round" stroke-linejoin="round"/>
</g>
<defs>
<clipPath id="clip0_6042_26930">
<rect width="24" height="24" fill="white" transform="translate(0 0.5)"/>
</clipPath>
</defs>
</svg> -->
<svg width="24" height="24" viewBox="0 0 24 24" fill="none" xmlns="http://www.w3.org/2000/svg">
    <path d="M7 4H2V6H4L7.68 14.39L6.25 17.04C6.09 17.32 6 17.65 6 18C6 19.1 6.9 20 8 20H20V18H8.42C8.28 18 8.17 17.89 8.17 17.75L8.2 17.62L9.1 16H17.55C18.3 16 18.96 15.58 19.3 14.97L23 8.48L21.6 7.52L17.1 14H9.7L8.1 10H19C19.55 10 20 9.55 20 9C20 8.45 19.55 8 19 8H7.1L6.1 5.47L7 4ZM7 18C6.45 18 6 18.45 6 19C6 19.55 6.45 20 7 20C7.55 20 8 19.55 8 19C8 18.45 7.55 18 7 18ZM17 18C16.45 18 16 18.45 16 19C16 19.55 16.45 20 17 20C17.55 20 18 19.55 18 19C18 18.45 17.55 18 17 18Z" fill="#FF9F6C"/>
  </svg>
  