<svg width="24" height="24" viewBox="0 0 24 24" fill="none" xmlns="http://www.w3.org/2000/svg">
<path d="M15.9377 15.9377C19.3603 15.4795 22 12.548 22 9C22 5.13401 18.866 2 15 2C11.452 2 8.52049 4.63967 8.06227 8.06227M15.9377 15.9377C15.9485 15.8571 15.9579 15.7761 15.9659 15.6946M15.9377 15.9377V15.9377ZM15.9377 15.9377C15.8375 16.6864 15.6189 17.3976 15.3014 18.052M8.06227 8.06227C8.369 8.0212 8.68203 8 9 8M8.06227 8.06227C7.91521 8.08196 7.76959 8.10622 7.62556 8.13489M9 8C12.866 8 16 11.134 16 15C16 15.0604 15.9992 15.1206 15.9977 15.1807C15.9961 15.2447 15.9936 15.3085 15.9903 15.372C15.9888 15.4009 15.9871 15.4297 15.9852 15.4584C15.982 15.5089 15.9782 15.5591 15.9738 15.6092C15.9714 15.6377 15.9687 15.6662 15.9659 15.6946M9 8C8.52957 8 8.06998 8.04641 7.62556 8.13489M7.58925 8.14222C7.60134 8.13974 7.61345 8.1373 7.62556 8.13489M7.58925 8.14222C4.39947 8.79494 2 11.6173 2 15C2 18.866 5.13401 22 9 22C10.9958 22 12.7965 21.1648 14.0716 19.8248C14.5675 19.3037 14.9839 18.7063 15.3014 18.052M7.58925 8.14222L7.62556 8.13489M15.9659 15.6946C15.8834 16.5326 15.6531 17.3272 15.3014 18.052" stroke="#363636" stroke-width="2" stroke-linecap="round" stroke-linejoin="round"/>
</svg>
