<?xml version="1.0" encoding="UTF-8"?> <svg xmlns="http://www.w3.org/2000/svg" width="94" height="32" viewBox="0 0 94 32" fill="none"> <rect x="0.5" y="0.5" width="93" height="31" rx="3.5" fill="white"></rect> <rect x="0.5" y="0.5" width="93" height="31" rx="3.5" stroke="#D9D9D9"></rect> <rect x="8" y="4" width="24" height="24" rx="12" fill="#F2F2F2"></rect> <path fill-rule="evenodd" clip-rule="evenodd" d="M26.1641 8.17902L32.1326 16.1372H20.1953L26.1641 8.17902Z" fill="#4EC9F5"></path> <path fill-rule="evenodd" clip-rule="evenodd" d="M20.1963 6L27.7994 16.1372H12.5938L20.1963 6Z" fill="#17A0D9"></path> <path fill-rule="evenodd" clip-rule="evenodd" d="M14.2264 8.17902L20.1951 16.1372H8.25781L14.2264 8.17902Z" fill="#1785C6"></path> <path d="M8.96702 22.3969L8.17071 21.7143C8.31731 21.4969 8.52465 21.3099 8.79255 21.1531C9.06056 20.9964 9.40436 20.918 9.82391 20.918C10.1475 20.918 10.437 20.9686 10.6923 21.0697C10.9476 21.1708 11.1624 21.3111 11.3369 21.4906C11.5113 21.67 11.644 21.8837 11.7351 22.1314C11.8261 22.3791 11.8716 22.6471 11.8716 22.9352C11.8716 23.2235 11.821 23.4902 11.7199 23.7353C11.6188 23.9806 11.4772 24.1929 11.2952 24.3725C11.1133 24.5518 10.8958 24.6922 10.643 24.7933C10.3903 24.8944 10.1121 24.945 9.80885 24.945C9.47513 24.945 9.16795 24.8818 8.88739 24.7554C8.60678 24.629 8.35526 24.4217 8.13281 24.1335L8.95181 23.4737C9.02256 23.595 9.13131 23.7025 9.27792 23.7961C9.42452 23.8896 9.59894 23.9363 9.80123 23.9363C10.054 23.9363 10.2462 23.8845 10.3776 23.7808C10.509 23.6773 10.6025 23.5117 10.6582 23.2841H9.20968V22.5333H10.6582C10.5975 22.3362 10.4964 22.1845 10.3548 22.0783C10.2133 21.9721 10.0287 21.9191 9.80123 21.9191C9.57873 21.9191 9.40179 21.9659 9.27031 22.0593C9.13892 22.1529 9.03778 22.2654 8.96702 22.3969Z" fill="#1785C6"></path> <path d="M14.6361 24.8236L13.8399 22.5257L12.9829 24.8236H11.6406L13.1042 21.0469H14.5906L15.9785 24.8236H14.6361Z" fill="#1785C6"></path> <path d="M17.4859 22.4196C17.5971 22.4246 17.7059 22.4398 17.812 22.465L18.6765 21.0469H20.0492L18.8585 22.8746C19.177 23.0869 19.4299 23.3575 19.6169 23.686C19.804 24.0147 19.9531 24.3939 20.0643 24.8236H18.6917C18.636 24.5607 18.5704 24.3407 18.4945 24.1638C18.4187 23.9868 18.3315 23.844 18.2329 23.7353C18.1343 23.6266 18.0231 23.5444 17.8991 23.4889C17.7754 23.4332 17.6376 23.3953 17.4859 23.3751V24.8236H16.2422V21.0469H17.4859V22.4196Z" fill="#1785C6"></path> <path d="M22.6834 23.1779H22.5242C22.3877 23.1779 22.2499 23.1843 22.1108 23.1969C21.972 23.2095 21.848 23.2336 21.7393 23.2689C21.6306 23.3043 21.5408 23.3561 21.4701 23.4244C21.3993 23.4926 21.3639 23.5824 21.3639 23.6936C21.3639 23.7644 21.3803 23.8251 21.4131 23.8757C21.446 23.9261 21.4877 23.9666 21.5383 23.9971C21.5889 24.0273 21.647 24.0488 21.7127 24.0615C21.7785 24.0741 21.8416 24.0804 21.9023 24.0804C22.1552 24.0804 22.3485 24.0109 22.4825 23.8718C22.6165 23.7328 22.6834 23.5444 22.6834 23.3068V23.1779ZM20.4007 21.5626C20.6232 21.3502 20.8823 21.191 21.1781 21.0848C21.4738 20.9787 21.776 20.9255 22.0843 20.9255C22.4029 20.9255 22.6721 20.9647 22.892 21.0432C23.1119 21.1214 23.2902 21.2428 23.4267 21.4071C23.5631 21.5715 23.663 21.7787 23.7262 22.029C23.7895 22.2792 23.8211 22.5763 23.8211 22.92V24.8236H22.6834V24.4217H22.6608C22.5647 24.5784 22.4194 24.6997 22.2247 24.7856C22.03 24.8716 21.8189 24.9145 21.5914 24.9145C21.4397 24.9145 21.283 24.8943 21.1213 24.8539C20.9594 24.8135 20.8115 24.7478 20.6776 24.6568C20.5436 24.5657 20.4336 24.4444 20.3476 24.2928C20.2617 24.1411 20.2188 23.954 20.2188 23.7316C20.2188 23.4585 20.2933 23.2386 20.4425 23.0718C20.5916 22.9049 20.7837 22.776 21.0188 22.6849C21.254 22.594 21.5156 22.5333 21.8038 22.5029C22.0919 22.4727 22.3726 22.4574 22.6456 22.4574V22.3968C22.6456 22.2097 22.5798 22.072 22.4483 21.9835C22.3169 21.895 22.1552 21.8507 21.963 21.8507C21.7861 21.8507 21.6154 21.8888 21.4512 21.9645C21.2869 22.0404 21.1465 22.1313 21.0302 22.2375L20.4007 21.5626Z" fill="#1785C6"></path> <path d="M28.4982 22.9201C28.4982 23.183 28.4578 23.4358 28.3768 23.6784C28.2959 23.9212 28.1784 24.1348 28.0242 24.3193C27.8699 24.5039 27.6817 24.6517 27.4592 24.7629C27.2368 24.8741 26.984 24.9298 26.7008 24.9298C26.4683 24.9298 26.2484 24.8831 26.041 24.7895C25.8337 24.696 25.672 24.5683 25.5557 24.4065H25.5406V26.1586H24.2969V21.0469H25.4798V21.5096H25.5027C25.6189 21.3579 25.7794 21.2251 25.9842 21.1114C26.189 20.9976 26.4304 20.9407 26.7084 20.9407C26.9815 20.9407 27.2292 20.9938 27.4516 21.1C27.6741 21.2062 27.8624 21.3502 28.0166 21.5323C28.1708 21.7143 28.2896 21.9253 28.3731 22.1655C28.4565 22.4057 28.4982 22.6571 28.4982 22.9201ZM27.2924 22.9201C27.2924 22.7988 27.2735 22.68 27.2354 22.5637C27.1976 22.4474 27.142 22.3449 27.0687 22.2566C26.9954 22.168 26.9031 22.096 26.7918 22.0404C26.6807 21.9847 26.5517 21.9569 26.4051 21.9569C26.2635 21.9569 26.1372 21.9847 26.0259 22.0404C25.9147 22.096 25.8199 22.1694 25.7414 22.2603C25.6631 22.3513 25.6024 22.455 25.5595 22.5713C25.5165 22.6875 25.4951 22.8064 25.4951 22.9277C25.4951 23.049 25.5165 23.1678 25.5595 23.2841C25.6024 23.4004 25.6631 23.5041 25.7414 23.595C25.8199 23.686 25.9147 23.7594 26.0259 23.8149C26.1372 23.8706 26.2635 23.8984 26.4051 23.8984C26.5517 23.8984 26.6807 23.8706 26.7918 23.8149C26.9031 23.7594 26.9954 23.686 27.0687 23.595C27.142 23.5041 27.1976 23.3992 27.2354 23.2803C27.2735 23.1615 27.2924 23.0414 27.2924 22.9201Z" fill="#1785C6"></path> <path d="M28.6641 21.0469H32.0085V22.0101H30.9544V24.8236H29.7106V22.0101H28.6641V21.0469Z" fill="#1785C6"></path> <path d="M44.0289 15.8821V17.1847H39.7682V15.8821H44.0289ZM37.1382 18.2685H38.6993C38.7855 18.938 39.0075 19.45 39.3655 19.8047C39.7268 20.1593 40.2886 20.3366 41.0509 20.3366C41.6143 20.3366 42.0783 20.1875 42.4429 19.8892C42.8075 19.5876 43.0776 19.1799 43.2533 18.6662C43.4323 18.1525 43.5218 17.5758 43.5218 16.9361V15.902C43.5218 15.2126 43.4223 14.6127 43.2235 14.1023C43.0246 13.5919 42.7346 13.1974 42.3534 12.919C41.9756 12.6406 41.5132 12.5014 40.9664 12.5014C40.4725 12.5014 40.0682 12.5859 39.7533 12.755C39.4384 12.924 39.1965 13.166 39.0274 13.4808C38.8617 13.7924 38.7523 14.1686 38.6993 14.6094H37.1333C37.1995 13.9531 37.3818 13.3665 37.6801 12.8494C37.9817 12.3324 38.4043 11.9247 38.9479 11.6264C39.4948 11.3281 40.1676 11.179 40.9664 11.179C41.8082 11.179 42.5357 11.3745 43.1489 11.7656C43.7654 12.1534 44.241 12.7003 44.5757 13.4062C44.9105 14.1122 45.0779 14.9408 45.0779 15.892V16.951C45.0779 17.9022 44.9121 18.7292 44.5807 19.4318C44.2526 20.1345 43.7869 20.678 43.1837 21.0625C42.5805 21.447 41.8695 21.6392 41.0509 21.6392C40.2322 21.6392 39.5445 21.4934 38.9877 21.2017C38.4308 20.9067 38 20.5057 37.695 19.9986C37.3901 19.4882 37.2045 18.9115 37.1382 18.2685ZM46.2698 21.5L46.2648 20.2124H46.5383C46.7504 20.2124 46.9277 20.1676 47.0702 20.0781C47.2161 19.9853 47.3354 19.8295 47.4282 19.6108C47.521 19.392 47.5922 19.0904 47.642 18.706C47.6917 18.3182 47.7281 17.831 47.7513 17.2443L47.8856 13.8636H53.2151V21.5H51.7584V15.1463H49.2627L49.1434 17.7415C49.1135 18.3712 49.0489 18.9214 48.9495 19.392C48.8534 19.8627 48.7125 20.2554 48.5269 20.5703C48.3413 20.8819 48.1027 21.1155 47.811 21.2713C47.5193 21.4238 47.1647 21.5 46.7471 21.5H46.2698ZM55.1975 21.5V13.8636H56.684V17.0653H57.3999L59.9205 13.8636H61.76L58.8019 17.5774L61.7948 21.5H59.9504L57.6485 18.4474H56.684V21.5H55.1975ZM65.1718 21.669C64.6879 21.669 64.2504 21.5795 63.8593 21.4006C63.4682 21.2183 63.1583 20.9548 62.9296 20.6101C62.7042 20.2654 62.5915 19.8428 62.5915 19.3423C62.5915 18.9115 62.6744 18.5568 62.8401 18.2784C63.0058 18 63.2296 17.7796 63.5113 17.6172C63.793 17.4548 64.1079 17.3321 64.4559 17.2493C64.8039 17.1664 65.1585 17.1035 65.5198 17.0604C65.9772 17.0073 66.3484 16.9643 66.6334 16.9311C66.9185 16.8946 67.1256 16.8366 67.2549 16.7571C67.3841 16.6776 67.4488 16.5483 67.4488 16.3693V16.3345C67.4488 15.9003 67.3261 15.5639 67.0809 15.3253C66.8389 15.0866 66.4777 14.9673 65.9971 14.9673C65.4966 14.9673 65.1022 15.0784 64.8138 15.3004C64.5288 15.5192 64.3316 15.7628 64.2222 16.0312L62.8252 15.7131C62.9909 15.2491 63.2329 14.8745 63.551 14.5895C63.8725 14.3011 64.2421 14.0923 64.6597 13.9631C65.0773 13.8305 65.5165 13.7642 65.9772 13.7642C66.2821 13.7642 66.6053 13.8007 66.9466 13.8736C67.2913 13.9432 67.6128 14.0724 67.9111 14.2614C68.2127 14.4503 68.4597 14.7204 68.6519 15.0717C68.8441 15.4197 68.9403 15.8722 68.9403 16.429V21.5H67.4885V20.456H67.4289C67.3328 20.6482 67.1886 20.8371 66.9964 21.0227C66.8041 21.2083 66.5572 21.3625 66.2556 21.4851C65.954 21.6077 65.5927 21.669 65.1718 21.669ZM65.4949 20.4759C65.9059 20.4759 66.2573 20.3946 66.5489 20.2322C66.8439 20.0698 67.0676 19.8577 67.2201 19.5959C67.3759 19.3307 67.4537 19.0473 67.4537 18.7457V17.7614C67.4007 17.8144 67.298 17.8641 67.1455 17.9105C66.9964 17.9536 66.8257 17.9917 66.6334 18.0249C66.4412 18.0547 66.2539 18.0829 66.0716 18.1094C65.8894 18.1326 65.7369 18.1525 65.6143 18.169C65.3259 18.2055 65.0624 18.2668 64.8238 18.353C64.5885 18.4392 64.3995 18.5634 64.257 18.7259C64.1178 18.8849 64.0482 19.0971 64.0482 19.3622C64.0482 19.7301 64.1841 20.0085 64.4559 20.1974C64.7277 20.383 65.074 20.4759 65.4949 20.4759ZM70.9202 24.3636V13.8636H72.3719V15.1016H72.4962C72.5824 14.9425 72.7066 14.7585 72.8691 14.5497C73.0315 14.3409 73.2568 14.1586 73.5452 14.0028C73.8335 13.8438 74.2147 13.7642 74.6887 13.7642C75.3051 13.7642 75.8553 13.92 76.3392 14.2315C76.8231 14.5431 77.2026 14.9922 77.4777 15.5788C77.7561 16.1655 77.8953 16.8714 77.8953 17.6967C77.8953 18.522 77.7578 19.2296 77.4827 19.8196C77.2076 20.4062 76.8298 20.8587 76.3492 21.1768C75.8686 21.4917 75.32 21.6491 74.7036 21.6491C74.2396 21.6491 73.8601 21.5713 73.5651 21.4155C73.2734 21.2597 73.0447 21.0774 72.879 20.8686C72.7133 20.6598 72.5857 20.4742 72.4962 20.3118H72.4067V24.3636H70.9202ZM72.3769 17.6818C72.3769 18.2187 72.4548 18.6894 72.6105 19.0938C72.7663 19.4981 72.9917 19.8146 73.2867 20.0433C73.5816 20.2687 73.9429 20.3814 74.3705 20.3814C74.8146 20.3814 75.1858 20.2637 75.4841 20.0284C75.7824 19.7898 76.0078 19.4666 76.1602 19.0589C76.316 18.6513 76.3939 18.1922 76.3939 17.6818C76.3939 17.178 76.3177 16.7256 76.1652 16.3246C76.0161 15.9235 75.7907 15.607 75.4891 15.375C75.1908 15.143 74.8179 15.027 74.3705 15.027C73.9396 15.027 73.575 15.138 73.2767 15.3601C72.9817 15.5821 72.758 15.892 72.6056 16.2898C72.4531 16.6875 72.3769 17.1515 72.3769 17.6818ZM78.6411 15.1463V13.8636H85.0843V15.1463H82.5935V21.5H81.1418V15.1463H78.6411Z" fill="#052802" fill-opacity="0.8"></path> </svg> 