<?xml version="1.0" encoding="UTF-8"?> <svg xmlns="http://www.w3.org/2000/svg" width="106" height="32" viewBox="0 0 106 32" fill="none"> <rect x="0.5" y="0.5" width="105" height="31" rx="3.5" fill="white"></rect> <rect x="0.5" y="0.5" width="105" height="31" rx="3.5" stroke="#D9D9D9"></rect> <path d="M18.1416 4.45778C19.1988 3.84741 20.5012 3.84741 21.5585 4.45778L28.9916 8.74933C30.0488 9.35969 30.7 10.4877 30.7 11.7085V20.2916C30.7 21.5123 30.0488 22.6403 28.9916 23.2507L21.5585 27.5422C20.5012 28.1526 19.1988 28.1526 18.1416 27.5422L10.7084 23.2507C9.65125 22.6403 9 21.5123 9 20.2916V11.7085C9 10.4877 9.65125 9.35969 10.7084 8.74933L18.1416 4.45778Z" fill="#32D681"></path> <path fill-rule="evenodd" clip-rule="evenodd" d="M15.7193 10.4845H16.0385C16.3111 10.4845 16.5609 10.6597 16.6744 10.935L19.15 16.7918L19.8873 18.5156L20.8974 16.141L23.0776 10.9351C23.1912 10.6597 23.441 10.4845 23.7135 10.4845H24.0317H25.4169H25.5079C25.894 10.4845 26.212 10.8349 26.212 11.2604V21.347H24.0317V13.7879L24.0315 13.7883L21.0336 20.8965C21.0087 20.9569 20.9772 21.0126 20.9403 21.0625L20.9441 21.0717C20.8079 21.2469 20.6262 21.347 20.3991 21.347H20.3987C20.3984 21.347 20.398 21.347 20.3977 21.347H19.3316H19.3303C19.1944 21.347 19.0585 21.3027 18.9492 21.2215C18.8407 21.1435 18.7517 21.0322 18.6957 20.8965L16.4701 15.5904L15.7193 13.814V21.347H13.5391V11.2604C13.5391 10.8349 13.857 10.4845 14.2431 10.4845H15.7193Z" fill="white"></path> <path d="M37.1655 11.3182H39.0298L42.2713 19.233H42.3906L45.6321 11.3182H47.4964V21.5H46.0348V14.1321H45.9403L42.9375 21.4851H41.7244L38.7216 14.1271H38.6271V21.5H37.1655V11.3182ZM52.9018 21.6541C52.1494 21.6541 51.5015 21.4934 50.9579 21.1719C50.4177 20.8471 50.0001 20.3913 49.7051 19.8047C49.4134 19.2147 49.2676 18.5237 49.2676 17.7315C49.2676 16.9493 49.4134 16.2599 49.7051 15.6634C50.0001 15.0668 50.411 14.6011 50.938 14.2663C51.4683 13.9316 52.0881 13.7642 52.7974 13.7642C53.2283 13.7642 53.6459 13.8355 54.0502 13.978C54.4546 14.1205 54.8175 14.3442 55.139 14.6491C55.4605 14.9541 55.7141 15.3501 55.8997 15.8374C56.0853 16.3213 56.1781 16.9096 56.1781 17.6023V18.1293H50.1078V17.0156H54.7214C54.7214 16.6245 54.6419 16.2782 54.4828 15.9766C54.3237 15.6716 54.1 15.4313 53.8116 15.2557C53.5266 15.08 53.1918 14.9922 52.8074 14.9922C52.3897 14.9922 52.0252 15.0949 51.7136 15.3004C51.4054 15.5026 51.1667 15.7678 50.9977 16.0959C50.832 16.4207 50.7491 16.7737 50.7491 17.1548V18.0249C50.7491 18.5353 50.8386 18.9695 51.0176 19.3274C51.1999 19.6854 51.4534 19.9588 51.7782 20.1477C52.103 20.3333 52.4825 20.4261 52.9167 20.4261C53.1984 20.4261 53.4553 20.3864 53.6873 20.3068C53.9193 20.224 54.1199 20.1013 54.2889 19.9389C54.4579 19.7765 54.5872 19.576 54.6767 19.3374L56.0836 19.5909C55.9709 20.0052 55.7688 20.3681 55.4771 20.6797C55.1887 20.9879 54.8258 21.2282 54.3883 21.4006C53.9541 21.5696 53.4586 21.6541 52.9018 21.6541ZM61.0291 24.5227C60.4226 24.5227 59.9006 24.4432 59.4631 24.2841C59.0289 24.125 58.6742 23.9145 58.3991 23.6527C58.1241 23.3909 57.9186 23.1042 57.7827 22.7926L59.0604 22.2656C59.1499 22.4115 59.2692 22.5656 59.4183 22.728C59.5708 22.8937 59.7763 23.0346 60.0348 23.1506C60.2966 23.2666 60.633 23.3246 61.044 23.3246C61.6075 23.3246 62.0732 23.187 62.4411 22.9119C62.8089 22.6402 62.9929 22.206 62.9929 21.6094V20.108H62.8984C62.8089 20.2704 62.6797 20.451 62.5107 20.6499C62.3449 20.8487 62.1162 21.0211 61.8246 21.1669C61.5329 21.3127 61.1534 21.3857 60.6861 21.3857C60.0829 21.3857 59.5393 21.2448 59.0554 20.9631C58.5748 20.678 58.1937 20.2588 57.9119 19.7053C57.6335 19.1484 57.4943 18.464 57.4943 17.652C57.4943 16.84 57.6319 16.1439 57.907 15.5639C58.1854 14.9839 58.5665 14.5398 59.0504 14.2315C59.5343 13.92 60.0829 13.7642 60.696 13.7642C61.17 13.7642 61.5528 13.8438 61.8445 14.0028C62.1361 14.1586 62.3632 14.3409 62.5256 14.5497C62.6913 14.7585 62.8189 14.9425 62.9084 15.1016H63.0178V13.8636H64.4744V21.669C64.4744 22.3253 64.322 22.8639 64.017 23.2848C63.7121 23.7057 63.2995 24.0173 62.7791 24.2195C62.2621 24.4216 61.6787 24.5227 61.0291 24.5227ZM61.0142 20.1527C61.4418 20.1527 61.803 20.0533 62.098 19.8544C62.3963 19.6522 62.6217 19.3639 62.7741 18.9893C62.9299 18.6115 63.0078 18.1591 63.0078 17.6321C63.0078 17.1184 62.9316 16.666 62.7791 16.2749C62.6267 15.8838 62.4029 15.5788 62.108 15.3601C61.813 15.138 61.4484 15.027 61.0142 15.027C60.5668 15.027 60.1939 15.143 59.8956 15.375C59.5973 15.6037 59.3719 15.9152 59.2195 16.3097C59.0703 16.7041 58.9957 17.1449 58.9957 17.6321C58.9957 18.1326 59.072 18.5717 59.2244 18.9496C59.3769 19.3274 59.6023 19.6224 59.9006 19.8345C60.2022 20.0466 60.5734 20.1527 61.0142 20.1527ZM68.6903 21.669C68.2064 21.669 67.7689 21.5795 67.3778 21.4006C66.9867 21.2183 66.6768 20.9548 66.4482 20.6101C66.2228 20.2654 66.1101 19.8428 66.1101 19.3423C66.1101 18.9115 66.1929 18.5568 66.3587 18.2784C66.5244 18 66.7481 17.7796 67.0298 17.6172C67.3116 17.4548 67.6264 17.3321 67.9744 17.2493C68.3224 17.1664 68.6771 17.1035 69.0384 17.0604C69.4957 17.0073 69.867 16.9643 70.152 16.9311C70.437 16.8946 70.6442 16.8366 70.7734 16.7571C70.9027 16.6776 70.9673 16.5483 70.9673 16.3693V16.3345C70.9673 15.9003 70.8447 15.5639 70.5994 15.3253C70.3575 15.0866 69.9962 14.9673 69.5156 14.9673C69.0152 14.9673 68.6207 15.0784 68.3324 15.3004C68.0473 15.5192 67.8501 15.7628 67.7408 16.0312L66.3438 15.7131C66.5095 15.2491 66.7514 14.8745 67.0696 14.5895C67.3911 14.3011 67.7607 14.0923 68.1783 13.9631C68.5959 13.8305 69.035 13.7642 69.4957 13.7642C69.8007 13.7642 70.1238 13.8007 70.4652 13.8736C70.8099 13.9432 71.1314 14.0724 71.4297 14.2614C71.7313 14.4503 71.9782 14.7204 72.1705 15.0717C72.3627 15.4197 72.4588 15.8722 72.4588 16.429V21.5H71.0071V20.456H70.9474C70.8513 20.6482 70.7071 20.8371 70.5149 21.0227C70.3227 21.2083 70.0758 21.3625 69.7741 21.4851C69.4725 21.6077 69.1113 21.669 68.6903 21.669ZM69.0135 20.4759C69.4245 20.4759 69.7758 20.3946 70.0675 20.2322C70.3625 20.0698 70.5862 19.8577 70.7386 19.5959C70.8944 19.3307 70.9723 19.0473 70.9723 18.7457V17.7614C70.9193 17.8144 70.8165 17.8641 70.6641 17.9105C70.5149 17.9536 70.3442 17.9917 70.152 18.0249C69.9598 18.0547 69.7725 18.0829 69.5902 18.1094C69.4079 18.1326 69.2554 18.1525 69.1328 18.169C68.8445 18.2055 68.581 18.2668 68.3423 18.353C68.107 18.4392 67.9181 18.5634 67.7756 18.7259C67.6364 18.8849 67.5668 19.0971 67.5668 19.3622C67.5668 19.7301 67.7027 20.0085 67.9744 20.1974C68.2462 20.383 68.5926 20.4759 69.0135 20.4759ZM74.5581 21.5V11.3182H78.1873C78.9795 11.3182 79.6357 11.4624 80.1561 11.7507C80.6764 12.0391 81.0659 12.4335 81.3244 12.9339C81.5829 13.4311 81.7122 13.9912 81.7122 14.6143C81.7122 15.2408 81.5813 15.8042 81.3194 16.3047C81.0609 16.8018 80.6698 17.1963 80.1461 17.4879C79.6258 17.7763 78.9712 17.9205 78.1824 17.9205H75.6866V16.6179H78.0431C78.5436 16.6179 78.9496 16.5317 79.2612 16.3594C79.5727 16.1837 79.8014 15.9451 79.9473 15.6435C80.0931 15.3419 80.166 14.9988 80.166 14.6143C80.166 14.2299 80.0931 13.8885 79.9473 13.5902C79.8014 13.2919 79.5711 13.0582 79.2562 12.8892C78.9447 12.7202 78.5337 12.6357 78.0233 12.6357H76.0943V21.5H74.5581ZM85.5478 21.669C85.0639 21.669 84.6264 21.5795 84.2353 21.4006C83.8442 21.2183 83.5343 20.9548 83.3056 20.6101C83.0802 20.2654 82.9675 19.8428 82.9675 19.3423C82.9675 18.9115 83.0504 18.5568 83.2161 18.2784C83.3818 18 83.6055 17.7796 83.8873 17.6172C84.169 17.4548 84.4838 17.3321 84.8319 17.2493C85.1799 17.1664 85.5345 17.1035 85.8958 17.0604C86.3532 17.0073 86.7244 16.9643 87.0094 16.9311C87.2944 16.8946 87.5016 16.8366 87.6309 16.7571C87.7601 16.6776 87.8248 16.5483 87.8248 16.3693V16.3345C87.8248 15.9003 87.7021 15.5639 87.4569 15.3253C87.2149 15.0866 86.8536 14.9673 86.373 14.9673C85.8726 14.9673 85.4782 15.0784 85.1898 15.3004C84.9048 15.5192 84.7076 15.7628 84.5982 16.0312L83.2012 15.7131C83.3669 15.2491 83.6088 14.8745 83.927 14.5895C84.2485 14.3011 84.6181 14.0923 85.0357 13.9631C85.4533 13.8305 85.8925 13.7642 86.3532 13.7642C86.6581 13.7642 86.9812 13.8007 87.3226 13.8736C87.6673 13.9432 87.9888 14.0724 88.2871 14.2614C88.5887 14.4503 88.8356 14.7204 89.0279 15.0717C89.2201 15.4197 89.3162 15.8722 89.3162 16.429V21.5H87.8645V20.456H87.8049C87.7087 20.6482 87.5646 20.8371 87.3723 21.0227C87.1801 21.2083 86.9332 21.3625 86.6316 21.4851C86.33 21.6077 85.9687 21.669 85.5478 21.669ZM85.8709 20.4759C86.2819 20.4759 86.6332 20.3946 86.9249 20.2322C87.2199 20.0698 87.4436 19.8577 87.5961 19.5959C87.7518 19.3307 87.8297 19.0473 87.8297 18.7457V17.7614C87.7767 17.8144 87.6739 17.8641 87.5215 17.9105C87.3723 17.9536 87.2016 17.9917 87.0094 18.0249C86.8172 18.0547 86.6299 18.0829 86.4476 18.1094C86.2653 18.1326 86.1129 18.1525 85.9902 18.169C85.7019 18.2055 85.4384 18.2668 85.1998 18.353C84.9644 18.4392 84.7755 18.5634 84.633 18.7259C84.4938 18.8849 84.4242 19.0971 84.4242 19.3622C84.4242 19.7301 84.5601 20.0085 84.8319 20.1974C85.1036 20.383 85.45 20.4759 85.8709 20.4759ZM91.9624 24.3636C91.7403 24.3636 91.5381 24.3454 91.3558 24.3089C91.1735 24.2758 91.0376 24.2393 90.9482 24.1996L91.3061 22.9815C91.5779 23.0545 91.8198 23.0859 92.032 23.076C92.2441 23.0661 92.4313 22.9865 92.5938 22.8374C92.7595 22.6882 92.9053 22.4446 93.0312 22.1065L93.2152 21.5994L90.4212 13.8636H92.0121L93.946 19.7898H94.0256L95.9595 13.8636H97.5554L94.4084 22.5192C94.2625 22.9169 94.0769 23.2533 93.8516 23.5284C93.6262 23.8068 93.3577 24.0156 93.0462 24.1548C92.7346 24.294 92.3733 24.3636 91.9624 24.3636Z" fill="#052802" fill-opacity="0.8"></path> </svg> 