<svg xmlns="http://www.w3.org/2000/svg" width="140" height="41" viewBox="0 0 140 41">
    <g fill="none" fill-rule="nonzero">
        <path fill="#000"
            d="M134.815 41H5.185C2.281 41 0 38.745 0 35.875V5.125C0 2.255 2.281 0 5.185 0h129.63C137.719 0 140 2.255 140 5.125v30.75c0 2.767-2.281 5.125-5.185 5.125z"></path>
        <g fill="#FFF" stroke="#FFF" stroke-width=".5">
            <path
                d="M48.533 10.162c0 .82-.204 1.538-.714 2.05-.613.615-1.327.923-2.246.923s-1.633-.308-2.246-.923c-.612-.615-.919-1.332-.919-2.255 0-.922.307-1.64.92-2.255.612-.615 1.326-.922 2.245-.922.408 0 .817.102 1.225.307.408.205.714.41.919.718l-.51.512c-.41-.512-.92-.717-1.634-.717-.613 0-1.225.205-1.633.717-.51.41-.715 1.025-.715 1.743 0 .717.204 1.332.715 1.742.51.41 1.02.718 1.633.718.715 0 1.225-.205 1.735-.718a1.7 1.7 0 0 0 .51-1.23h-2.245v-.717h2.96v.307zM53.23 7.6h-2.757v1.947h2.552v.718h-2.552v1.947h2.756v.82h-3.573v-6.15h3.573zM56.598 13.032h-.817V7.6h-1.735v-.718h4.287V7.6h-1.735zM61.294 13.032v-6.15h.816v6.15zM65.581 13.032h-.816V7.6h-1.736v-.718h4.186V7.6h-1.736v5.432zM75.28 12.212c-.613.615-1.328.923-2.247.923-.918 0-1.633-.308-2.246-.923-.612-.615-.918-1.332-.918-2.255 0-.922.306-1.64.918-2.255.613-.615 1.328-.922 2.246-.922.92 0 1.634.307 2.246.922.613.615.919 1.333.919 2.255 0 .923-.306 1.64-.919 2.255zM71.4 11.7c.408.41 1.02.717 1.633.717s1.225-.205 1.634-.717c.408-.41.714-1.025.714-1.743 0-.717-.204-1.332-.714-1.742-.409-.41-1.021-.718-1.634-.718-.612 0-1.225.205-1.633.718a2.478 2.478 0 0 0-.715 1.742c0 .718.205 1.333.715 1.743zM77.32 13.032v-6.15h.92L81.2 11.7V6.882h.817v6.15H81.2L78.035 8.01v5.022z"></path>
        </g>
        <path fill="#FFF"
            d="M70.298 22.458c-2.515 0-4.507 1.872-4.507 4.471 0 2.495 1.992 4.47 4.507 4.47 2.515 0 4.507-1.87 4.507-4.47 0-2.703-1.992-4.47-4.507-4.47zm0 7.07c-1.363 0-2.515-1.143-2.515-2.703 0-1.56 1.152-2.703 2.515-2.703 1.362 0 2.515 1.04 2.515 2.703 0 1.56-1.153 2.703-2.515 2.703zm-9.747-7.07c-2.516 0-4.507 1.872-4.507 4.471 0 2.495 1.991 4.47 4.507 4.47 2.515 0 4.507-1.87 4.507-4.47 0-2.703-1.992-4.47-4.507-4.47zm0 7.07c-1.363 0-2.516-1.143-2.516-2.703 0-1.56 1.153-2.703 2.516-2.703 1.362 0 2.515 1.04 2.515 2.703 0 1.56-1.153 2.703-2.515 2.703zM48.917 23.81v1.871h4.507c-.105 1.04-.524 1.872-1.048 2.392-.629.624-1.677 1.351-3.459 1.351-2.83 0-4.926-2.183-4.926-4.99 0-2.808 2.201-4.991 4.926-4.991 1.468 0 2.62.624 3.459 1.352l1.362-1.352c-1.152-1.04-2.62-1.872-4.716-1.872-3.773 0-7.022 3.12-7.022 6.863 0 3.743 3.249 6.862 7.022 6.862 2.096 0 3.564-.624 4.821-1.976 1.258-1.247 1.677-3.015 1.677-4.366 0-.416 0-.832-.105-1.144h-6.498zM96.5 25.265c-.42-1.04-1.468-2.807-3.773-2.807-2.306 0-4.193 1.768-4.193 4.471 0 2.495 1.887 4.47 4.402 4.47 1.992 0 3.25-1.247 3.668-1.975l-1.467-1.04c-.524.728-1.153 1.248-2.2 1.248-1.049 0-1.678-.416-2.202-1.351l5.974-2.496-.21-.52zm-6.08 1.456c0-1.664 1.363-2.6 2.307-2.6.733 0 1.467.417 1.676.936l-3.982 1.664zm-4.925 4.263h1.991V17.987h-1.991v12.997zm-3.144-7.59c-.524-.52-1.363-1.04-2.41-1.04-2.202 0-4.298 1.976-4.298 4.471s1.991 4.367 4.297 4.367c1.048 0 1.887-.52 2.306-1.04h.105v.624c0 1.664-.944 2.6-2.41 2.6-1.154 0-1.992-.832-2.202-1.56l-1.677.728c.524 1.143 1.782 2.599 3.983 2.599 2.306 0 4.192-1.352 4.192-4.575v-7.902h-1.886v.728zm-2.306 6.134c-1.363 0-2.515-1.143-2.515-2.703 0-1.56 1.152-2.703 2.515-2.703 1.362 0 2.41 1.143 2.41 2.703 0 1.56-1.048 2.703-2.41 2.703zm25.573-11.54H100.9v12.996h1.992v-4.887h2.725c2.2 0 4.297-1.56 4.297-4.055 0-2.495-2.096-4.055-4.297-4.055zm.105 6.238h-2.83v-4.471h2.83c1.467 0 2.305 1.248 2.305 2.183-.104 1.144-.943 2.288-2.305 2.288zm12.052-1.872c-1.467 0-2.934.624-3.458 1.976l1.782.727c.419-.727 1.048-.935 1.781-.935 1.048 0 1.992.624 2.096 1.663v.104c-.314-.208-1.153-.52-1.991-.52-1.886 0-3.773 1.04-3.773 2.912 0 1.767 1.572 2.91 3.249 2.91 1.362 0 1.991-.623 2.515-1.247h.105v1.04h1.887v-4.99c-.21-2.288-1.992-3.64-4.193-3.64zm-.21 7.174c-.628 0-1.571-.312-1.571-1.143 0-1.04 1.153-1.352 2.096-1.352.838 0 1.258.208 1.782.416-.21 1.248-1.258 2.08-2.306 2.08zm11.006-6.862l-2.201 5.615h-.105l-2.306-5.615h-2.096l3.459 7.902-1.992 4.367h1.992l5.345-12.269h-2.096zm-17.608 8.318h1.991V17.987h-1.991v12.997zM10.356 7.136a.583.583 0 0 1 .827-.002l13.004 13.021v.689L10.873 34.282l-.517-.522c-.435-.44-.682-1.115-.682-1.861V8.997c0-.745.247-1.421.682-1.86zm.545 1.366c-.039.15-.06.317-.06.495V31.9c0 .243.04.464.108.65L22.884 20.5 10.901 8.502zM23.5 20.5l-.105-.104h-.374v.208h.375l.104-.104z"></path>
        <path fill="#FFF"
            d="M32.655 21.653c1.048-.605 1.048-1.39 0-1.995l-4.772-2.752-3.612 3.646 3.648 3.682 4.736-2.581zm-8.538-1.257h-.2l-.156.156.157.155h.2l.07-.07v-.17l-.07-.07zm9.121-1.748c1.827 1.053 1.827 2.962-.012 4.022l-5.518 3.008-4.687-4.73v-.792l4.792-4.837.462.466 4.963 2.863z"></path>
        <path fill="#FFF"
            d="M26.97 24.727l-3.366-3.398-11.838 11.948c.237.002.522-.071.868-.225l14.337-8.325zm1.239.63l-15.044 8.732c-1.15.516-2.109.481-2.809-.225l-.406-.41L23.604 19.67l4.726 4.77-.414.411.293.505z"></path>
        <path fill="#FFF"
            d="M28.864 16.02l-5.258 5.307L9.948 7.652l.408-.412c.738-.745 1.757-.818 2.861-.2l15.647 8.98zM12.641 8.055c-.36-.203-.656-.286-.906-.265l11.867 11.882 3.366-3.397-14.327-8.22z"></path>
        <g fill="#000">
            <path
                d="M27.813 24.749l-14.886 8.497c-.822.518-1.54.415-2.054 0l-.102.104.102.103c.514.415 1.232.518 2.054 0l14.886-8.704z"
                opacity=".2"></path>
            <path
                d="M10.77 33.246c-.307-.31-.41-.829-.41-1.45v.103c0 .622.205 1.14.513 1.45v-.103h-.102z"
                opacity=".12"></path>
        </g>
    </g>
</svg>