<svg width="21" height="20" viewBox="0 0 21 20" fill="none" xmlns="http://www.w3.org/2000/svg">
<path d="M19.2081 11.4286H12.0653V18.5714C12.0653 18.9503 11.9148 19.3137 11.6469 19.5816C11.379 19.8495 11.0156 20 10.6367 20C10.2578 20 9.89448 19.8495 9.62657 19.5816C9.35866 19.3137 9.20815 18.9503 9.20815 18.5714V11.4286H2.06529C1.68641 11.4286 1.32305 11.2781 1.05514 11.0102C0.787229 10.7422 0.636719 10.3789 0.636719 10C0.636719 9.62112 0.787229 9.25776 1.05514 8.98985C1.32305 8.72194 1.68641 8.57143 2.06529 8.57143H9.20815V1.42857C9.20815 1.04969 9.35866 0.686328 9.62657 0.418418C9.89448 0.150509 10.2578 0 10.6367 0C11.0156 0 11.379 0.150509 11.6469 0.418418C11.9148 0.686328 12.0653 1.04969 12.0653 1.42857V8.57143H19.2081C19.587 8.57143 19.9504 8.72194 20.2183 8.98985C20.4862 9.25776 20.6367 9.62112 20.6367 10C20.6367 10.3789 20.4862 10.7422 20.2183 11.0102C19.9504 11.2781 19.587 11.4286 19.2081 11.4286Z" fill="#CB4609"/>
</svg>
